<svg xmlns="http://www.w3.org/2000/svg" viewBox="0 0 520 390" role="img" aria-labelledby="title">
  <title id="title">海丝文化港</title>
  <rect width="520" height="390" fill="#d6ece9"/>
  <path d="M0 170 C110 130 210 180 320 145 C405 120 455 145 520 125 L520 390 L0 390 Z" fill="#b8cf9c"/>
  <path d="M0 230 C120 205 230 245 350 218 C430 200 480 210 520 205 L520 390 L0 390 Z" fill="#0f766e"/>
  <rect x="34" y="210" width="190" height="30" fill="#80542d"/>
  <rect x="70" y="240" width="15" height="96" fill="#614321"/>
  <rect x="175" y="240" width="15" height="96" fill="#614321"/>
  <path d="M325 88 L325 260" stroke="#4b4b4b" stroke-width="7"/>
  <path d="M335 105 L440 260 L335 260 Z" fill="#fff6dd"/>
  <path d="M315 125 L235 260 L315 260 Z" fill="#f4d08b"/>
  <path d="M220 260 H455 L420 305 H248 Z" fill="#9a4f2b"/>
  <circle cx="100" cy="72" r="40" fill="#d97706"/>
</svg>
