<svg xmlns="http://www.w3.org/2000/svg" viewBox="0 0 520 390" role="img" aria-labelledby="title">
  <title id="title">涠洲岛</title>
  <rect width="520" height="390" fill="#d8efef"/>
  <circle cx="385" cy="83" r="45" fill="#d97706"/>
  <path d="M0 210 C90 172 190 215 292 178 C398 140 468 166 520 148 L520 390 L0 390 Z" fill="#11857c"/>
  <path d="M80 280 C145 210 210 210 275 280 C330 228 388 232 445 287 L520 390 H0 Z" fill="#5b7f55"/>
  <path d="M0 318 C130 295 250 335 380 307 C450 292 490 302 520 296 L520 390 L0 390 Z" fill="#f0d49a"/>
  <path d="M180 278 C222 230 250 232 290 278 Z" fill="#304d3b"/>
  <path d="M314 286 C354 252 385 255 424 288 Z" fill="#3f6546"/>
</svg>
