<svg xmlns="http://www.w3.org/2000/svg" viewBox="0 0 960 660" role="img" aria-labelledby="title desc">
  <title id="title">北海老街</title>
  <desc id="desc">骑楼街区、拱廊、灯笼和远处天空</desc>
  <rect width="960" height="660" fill="#f4e3c3"/>
  <rect y="0" width="960" height="230" fill="#c8e5df"/>
  <circle cx="780" cy="100" r="62" fill="#d97706" opacity="0.75"/>
  <path d="M0 230 L960 230 L880 660 L80 660 Z" fill="#d5b17b"/>
  <path d="M75 160 H410 V660 H20 V220 Z" fill="#f5f0df"/>
  <path d="M550 145 H890 L940 230 V660 H520 Z" fill="#efe3c8"/>
  <g fill="#0f766e">
    <rect x="105" y="245" width="76" height="102" rx="4"/>
    <rect x="224" y="245" width="76" height="102" rx="4"/>
    <rect x="625" y="240" width="76" height="108" rx="4"/>
    <rect x="748" y="240" width="76" height="108" rx="4"/>
  </g>
  <g fill="#fff6d8">
    <path d="M80 410 h110 a55 55 0 0 0 -110 0z"/>
    <path d="M220 410 h110 a55 55 0 0 0 -110 0z"/>
    <path d="M610 412 h110 a55 55 0 0 0 -110 0z"/>
    <path d="M750 412 h110 a55 55 0 0 0 -110 0z"/>
  </g>
  <g fill="#b45309">
    <rect x="74" y="200" width="335" height="28"/>
    <rect x="552" y="196" width="360" height="30"/>
    <rect x="114" y="382" width="52" height="18" rx="9"/>
    <rect x="254" y="382" width="52" height="18" rx="9"/>
    <rect x="642" y="382" width="52" height="18" rx="9"/>
    <rect x="782" y="382" width="52" height="18" rx="9"/>
  </g>
  <path d="M430 660 L490 360 L548 660 Z" fill="#9f7647"/>
  <path d="M315 660 L460 420 L610 660 Z" fill="#c89d64"/>
  <g fill="#d33c2f">
    <circle cx="456" cy="180" r="18"/>
    <circle cx="508" cy="174" r="18"/>
    <circle cx="560" cy="180" r="18"/>
  </g>
  <path d="M0 600 C220 565 390 612 560 582 C735 552 850 580 960 560 L960 660 L0 660 Z" fill="#82623f" opacity="0.34"/>
</svg>
