<svg xmlns="http://www.w3.org/2000/svg" viewBox="0 0 960 660" role="img" aria-labelledby="title desc">
  <title id="title">北海港口</title>
  <desc id="desc">港口、帆船、海浪与远山</desc>
  <defs>
    <linearGradient id="portSky" x1="0" y1="0" x2="0" y2="1">
      <stop offset="0" stop-color="#c9ece8"/>
      <stop offset="1" stop-color="#f6e6c1"/>
    </linearGradient>
  </defs>
  <rect width="960" height="660" fill="url(#portSky)"/>
  <path d="M0 250 C170 185 310 240 460 205 C640 160 745 220 960 172 L960 660 L0 660 Z" fill="#c9d6b0"/>
  <path d="M0 335 C170 300 300 350 475 310 C620 277 775 320 960 285 L960 660 L0 660 Z" fill="#0f766e"/>
  <path d="M0 435 C210 385 370 455 560 410 C710 375 820 420 960 395 L960 660 L0 660 Z" fill="#64bcb7"/>
  <path d="M0 545 C160 520 350 565 535 532 C700 502 835 520 960 506 L960 660 L0 660 Z" fill="#eac486"/>
  <rect x="83" y="352" width="310" height="44" fill="#8b5e34"/>
  <rect x="120" y="396" width="22" height="150" fill="#644626"/>
  <rect x="310" y="396" width="22" height="150" fill="#644626"/>
  <path d="M570 155 L570 410" stroke="#4b4b4b" stroke-width="9"/>
  <path d="M584 182 L762 410 L584 410 Z" fill="#fff6dd"/>
  <path d="M558 215 L430 410 L558 410 Z" fill="#f4d08b"/>
  <path d="M404 410 H786 L735 470 H452 Z" fill="#9a4f2b"/>
  <circle cx="185" cy="163" r="55" fill="#d97706" opacity="0.78"/>
</svg>
